<?xml version="1.0" encoding="UTF-8" standalone="no"?><!DOCTYPE svg PUBLIC "-//W3C//DTD SVG 1.1//EN" "http://www.w3.org/Graphics/SVG/1.1/DTD/svg11.dtd"><svg viewBox="0 0 3250 750" version="1.1" xmlns="http://www.w3.org/2000/svg" xmlns:xlink="http://www.w3.org/1999/xlink" xml:space="preserve" xmlns:serif="http://www.serif.com/" style="fill-rule:evenodd;clip-rule:evenodd;stroke-linejoin:round;stroke-miterlimit:2;"><path d="M2209.23,613.663c6.381,2.051 11.885,5.066 17.383,7.694c7.985,3.816 15.302,4.256 22.897,0.553c6.278,-3.061 12.984,-0.23 19.382,-2.595c15.019,-5.553 29.061,-13.302 43.228,-20.765c17.822,-9.388 36.626,-16.211 54.927,-24.34c3.492,-1.551 6.919,-3.265 10.39,-4.869c4.583,-2.118 5.19,-5.14 2.385,-9.521c-2.389,-3.731 -4.556,-6.063 -8.079,-1.381c-1.382,1.836 -3.472,2.347 -5.027,0.822c-3.975,-3.898 -10.27,-4.475 -12.668,-10.845c-0.953,-2.53 -3.863,-4.346 -6.102,-6.185c-3.879,-3.186 -7.775,-6.404 -11.947,-9.115c-4.542,-2.951 -2.579,-9.616 -7.763,-13.038c-1.012,-0.556 -2.096,1.284 -3.55,1.902c-4.34,1.844 -7.419,0.828 -8.402,-4.498c-0.501,-2.712 -0.872,-5.457 -1.496,-8.135c-1.782,-7.643 -5.27,-13.073 -12.744,-16.608c-9.165,-4.336 -16.879,-11.827 -24.004,-19.311c-12.643,-13.28 -28.233,-14.878 -44.491,-14.544c-5.672,0.116 -11.25,0.774 -16.861,-0.97c-3.932,-1.222 -7.246,-2.471 -5.802,-8.443c-8.907,0.036 -16.775,5.975 -25.238,2.552c-0.818,-3.012 1.367,-3.792 2.922,-4.465c5.465,-2.365 10.965,-4.7 16.595,-6.559c5.097,-1.683 10.715,-0.807 13.69,3.608c4.385,6.507 10.35,5.79 15.235,4.052c8.868,-3.156 17.4,-6.164 26.846,-3.807c0.672,0.168 1.585,-0.752 4.506,-2.262c-9.433,-5.236 -16.298,-11.881 -26.116,-12.318c-2.829,-0.126 -5.697,-0.01 -8.51,0.336c-13.967,1.715 -27.236,-1.226 -40.696,-5.112c-9.194,-2.654 -19.126,-2.711 -28.762,-3.274c-11.622,-0.68 -23.086,-3.031 -34.801,-2.936c-5.71,0.046 -9.883,-5.36 -15.356,-7.322c-13.98,-5.01 -28.868,-7.637 -41.204,-17.325c-6.545,-5.141 -9.568,-13.017 -13.682,-19.71c-4.972,-8.089 2.69,-24.765 11.113,-29.235c11.32,-6.008 22.356,-12.647 34.84,-16.251c-30.324,-5.227 -60.045,-2.512 -89.39,7.827c-0.479,-27.837 63.493,-67.943 88.407,-55.857c-33.805,4.033 -60.823,20.332 -80.903,49.589c36.039,-13.569 73.55,-19.034 110.959,-25.254c-14.691,9.472 -32.122,8.523 -47.588,15.388c12.868,0.883 25.547,4.868 38.46,2.586c5.4,-0.954 10.773,0.056 16.116,-1.101c1.866,-0.404 4.312,-0.34 5.797,1.882c4.641,6.94 11.77,7.454 18.743,7.679c3.466,0.111 5.976,0.768 8.888,3.202c6.231,5.208 13.287,8.905 21.571,4.582c3.731,-1.947 7.157,-1.703 10.565,1.167c4.665,3.929 10.706,3.111 16.094,4.452c2.71,0.674 3.474,-2.93 4.059,-5.284c2.718,-10.938 6.932,-14.25 17.532,-13.438c2.108,0.161 4.281,1.037 6.283,0.681c2.617,-0.465 6.129,-0.446 6.535,-4.484c0.348,-3.463 -2.338,-4.36 -4.738,-5.667c-7.923,-4.316 -14.763,-10.304 -21.36,-16.753c-5.724,4.277 1.692,8.144 -0.07,12.128c-2.792,2.304 -4.697,-1.54 -7.643,-1.085c-2.142,1.148 -2.116,7.448 -6.865,4.44c-3.973,-2.516 -1.985,-6.152 -1.033,-9.42c2.192,-7.525 0.351,-10.086 -6.789,-8.391c-5.145,1.221 -11.184,-0.058 -14.091,7.677c-1.701,4.527 -13.328,4.066 -17.599,0.417c-5.852,-5 -17.129,-5.311 -23.277,-0.547c-3.997,3.097 -9.201,1.873 -13.382,4.371c-0.785,0.469 -1.727,-0.498 -2.076,-1.548c-0.499,-1.5 0.345,-2.251 1.387,-3.02c2.302,-1.697 5.76,-0.425 7.59,-3.25c-0.815,-4.527 -5.597,-2.031 -7.603,-5.295c1.877,-4.581 7.299,-4.853 10.295,-8.922c-3.784,-1.345 -7.189,-2.955 -9.932,1.731c-0.927,1.584 -2.715,2.823 -4.203,2.33c-7.5,-2.485 -14.038,-0.063 -20.639,3.465c-1.828,0.977 -5.011,1.784 -6.204,-1.375c-1.401,-3.71 1.798,-4.593 4.041,-5.831c1.239,-0.684 2.557,-1.204 4.188,-1.959c-1.365,-4.482 -5.338,-6.781 -7.167,-10.806c-1.393,-3.066 -1.829,-5.465 0.32,-7.289c4.175,-3.543 4.792,-8.548 5.749,-13.395c2.211,-11.196 8.455,-18.922 17.814,-23.982c18,-9.731 37.346,-14.791 57.015,-19.093c15.994,-3.498 31.869,-0.442 47.788,-0.639c3.175,-0.039 6.395,1.647 9.547,2.698c2.554,0.851 5.374,1.739 7.608,0.248c10.25,-6.842 22.753,-6.295 33.583,-12.682c7.252,-4.277 14.549,-7.749 19.068,-14.957c3.53,-5.63 7.168,-11.171 10.732,-16.774c3.604,-5.667 8.59,-7.77 14.429,-7.548c14.814,0.563 29.903,-0.08 44.342,2.808c16.578,3.316 33.576,4.378 49.796,9.846c7.465,2.516 18.534,16.057 18.684,24.417c0.148,8.214 2.772,16.058 1.896,24.585c-0.45,4.378 5.185,7.804 8.706,10.921c4.142,3.667 8.94,6.494 13.103,10.138c5.498,4.812 8.524,11.955 10.739,18.549c4.027,11.988 10.038,23.89 7.468,37.478c-0.389,2.056 0.546,3.321 1.93,4.476c2.605,2.173 5.091,4.518 7.776,6.572c17.283,13.221 19.543,22.626 9.884,43.071c3.608,0.907 5.268,4.668 9.416,5.751c2.286,0.597 2.607,7.375 5.051,10.124c4.513,5.076 5.164,14.032 13.802,15.174c3.262,0.432 5.058,4.42 5.02,7.415c-0.119,9.495 5.437,13.634 12.361,17.306c5.304,2.813 11.971,3.459 13.363,12.463c0.45,2.911 6.717,7.139 11.485,7.507c5.361,0.413 10.771,4.567 16.49,-0.76c2.041,-1.901 6.622,-1.863 10.291,-1.502c8.169,0.803 16.409,0.838 24.58,1.21c14.502,0.66 29.527,1.994 42.93,7.61c11.219,4.701 23.778,7.401 33.166,16.684c1.282,1.267 3.451,2.2 5.185,2.158c9.427,-0.232 13.74,8.136 19.721,13.367c2.764,2.417 3.2,7.359 1.789,11.37c-3.472,9.867 -7.9,18.935 -18.899,21.16c-1.034,12.208 -19.259,19.465 -30.434,12.647c-5.978,-3.647 -11.868,-8.588 -19.58,-4.645c-0.68,0.348 -1.91,-0.104 -2.725,-0.529c-12.187,-6.362 -25.931,-7.353 -38.455,-12.74c-6.889,-2.963 -14.58,-3.795 -21.878,-5.493c-5.983,-1.392 -10.579,-4.225 -14.741,-8.223c-4.697,-4.511 -10.331,-5.354 -15.98,-7.386c-8.152,-2.931 -13.88,-1.001 -20.175,3.271c-3.325,2.257 -6.379,-0.04 -9.47,-1.06c-1.953,-0.644 -3.955,-2.358 -5.786,0.106c-1.641,2.209 -1.873,4.585 -0.166,6.916c0.909,1.241 1.319,2.439 1.076,4.134c-1.401,9.775 0.66,13.073 9.557,14.732c-3.09,3.173 -4.434,6.877 -5.523,10.931c-0.654,2.433 -1.776,6.945 -6.354,4.612c-0.322,-0.164 -1.072,0.057 -1.315,0.369c-8.445,10.862 -20.845,5.352 -31.141,8.509c-1.343,0.412 -2.914,0.211 -4.119,0.85c-1.917,1.016 -2.396,5.051 -5.456,3.567c-3.575,-1.734 -7.656,-2.908 -9.888,-6.818c-0.895,-1.567 -1.959,-3.793 -3.504,-3.172c-6.056,2.437 -9.814,-2.091 -13.759,-5.049c-5.4,-4.05 -11.047,-3.012 -15.063,0.389c-5.307,4.493 -7.804,1.729 -10.104,-2.369c-2.976,-5.301 -6.075,-4.695 -9.747,-1.274c-2.491,2.321 -5.112,4.527 -7.343,7.108c-1.94,2.245 -3.694,5.011 -0.851,7.904c2.013,2.048 5.648,4.109 3.448,7.117c-2.283,3.123 -5.919,5.621 -10.115,5.897c-1.116,0.073 -2.284,-0.857 -3.409,-0.81c-2.045,0.086 -3.713,1.216 -4.061,3.497c-0.347,2.276 1.405,2.658 2.993,3.414c10.029,4.772 14.17,12.098 12.705,21.642c-0.391,2.55 -1.255,4.19 -3.696,4.793c-26.147,6.459 -50.371,18.555 -75.018,29.318c-17.038,7.44 -33.692,15.892 -50.415,24.125c-6.928,3.411 -10.19,11.458 -16.658,15.105c2.925,8.875 15.018,3.753 17.438,14.055c-8.212,1.959 -15.545,0.536 -22.751,-1.778c-6.59,-2.117 -12.982,-3.154 -20.102,-2.721c-5.218,0.318 -12.214,-0.319 -16.356,-4.701c-3.952,-4.181 -7.832,-4.048 -12.257,-3.205c-20.213,3.851 -40.413,7.774 -60.598,11.791c-5.057,1.006 -10.518,1.546 -12.77,7.889c-0.216,0.607 -0.936,1.156 -1.542,1.439c-4.702,2.192 -16.7,-3.781 -18.046,-9.084c-7.494,-1.768 -13.974,5.157 -23.569,3.424c10.287,-7.612 18.089,-16.107 30.46,-11.958c2.533,0.849 5.054,0.859 7.699,0.453c23.56,-3.615 46.611,-10.741 70.578,-11.579c1.104,-0.039 2.185,-0.805 3.859,-1.46c-7.334,-6.18 -15.621,-9.469 -23.751,-11.488c-13.195,-3.277 -24.311,-12.055 -37.635,-14.6c-2.149,-0.41 -4.617,-2.49 -4.593,-4.288c0.105,-7.774 -5.568,-7.427 -10.039,-8.916c-3.101,-1.033 -6.438,-1.604 -9.684,-6.367c9.447,-0.409 17.918,-1.666 25.874,1.385c17.702,6.79 35.131,14.382 53.211,21.757m185.763,-174.375c7.932,5.47 16.972,5.368 25.855,5.461c14.309,0.151 28.579,1.223 42.93,0.89c11.219,-0.26 22.208,2.5 32.176,-6.417c6.211,-5.556 7.465,-6.813 3.342,-14.677c-0.798,-1.522 -1.657,-3.087 -2.059,-4.75c-1.176,-4.859 -3.288,-5.999 -6.795,-2.2c-2.729,2.957 -6.155,4.67 -9.671,6.091c-17.09,6.911 -34.978,8.226 -52.962,7.337c-6.17,-0.305 -12.744,-0.833 -18.89,-3.435c1.731,-3.864 5.033,-1.167 7.167,-4.525c-3.779,0.266 -6.484,-4.584 -9.931,-0.714c-4.323,4.854 -9.297,9.296 -11.163,16.937m-206.981,-167.898c2.047,-1.698 4.268,-3.207 6.105,-5.131c4.316,-4.52 4.403,-10.193 0.461,-14.703c-4.316,-4.937 -8.435,-5.102 -13.59,-0.576c-1.815,1.593 -3.64,3.177 -5.516,4.686c-11.229,9.031 -19.353,8.368 -28.677,-2.352c-3.661,0.8 -6.109,3.733 -8.725,6.145c-8.031,7.405 -6.668,15.154 3.137,19.484c2.477,1.094 5.025,1.331 7.62,1.416c13.393,0.441 26.403,-1.136 39.185,-8.969m267.305,129.373c-2.737,6.356 -6.326,0.256 -9.361,0.532c-3.139,2.266 -3.967,7.166 -8.748,7.134c-5.7,-0.038 -11.3,-0.094 -16.498,-3.026c-1.804,-1.018 -3.609,-2.92 -5.738,-0.839c-1.662,1.625 -2.38,3.969 -1.941,6.172c0.589,2.957 3.186,3.372 5.594,3.595c7.645,0.708 15.286,1.498 22.943,2.013c4.806,0.323 9.442,-1.028 13.636,-3.392c3.334,-1.879 4.843,-5.579 5.021,-9.391c0.111,-2.361 -1.452,-4.234 -4.91,-2.797m-243.722,-155.757c-3.807,-0.137 -7.737,-1.75 -11.866,0.755c1.438,3.165 2.55,5.901 3.895,8.5c1.572,3.039 0.571,6.56 1.566,9.503c1.466,4.331 4.953,5.463 8.33,2.473c2.049,-1.814 3.827,-2.743 6.475,-3.446c4.385,-1.164 6.566,-5.544 6.798,-10.313c0.223,-4.578 -3.549,-4.577 -6.464,-5.305c-2.518,-0.629 -5.05,-1.19 -8.733,-2.167m159.029,90.553c-1.29,1.769 -2.621,3.507 -3.86,5.316c-1.439,2.102 -1.19,4.276 0.114,6.311c1.413,2.205 3.338,1.342 5.103,0.674c2.415,-0.914 3.493,-3.284 2.671,-5.43c-2.714,-7.085 0.769,-8.24 6.465,-7.301c-3.273,-7.171 -4.036,-7.139 -10.493,0.43m34.411,4.314c-8.144,-6.176 -8.144,-6.176 -11.62,-2.028c4.283,2.591 4.519,11.867 12.506,8.188c0.911,-1.992 -0.256,-3.549 -0.886,-6.16m-275.819,-55.51c3.882,-6.797 -2.913,-7.889 -4.961,-12.497c-3.546,5.628 2.979,9.12 -0.221,13.678c2.046,-0.466 3.193,-0.727 5.182,-1.181Z" style="fill:#6A8372;fill-rule:nonzero;"/></svg>